<svg width="3360" height="1678" viewBox="0 0 3360 1678" fill="none" xmlns="http://www.w3.org/2000/svg">
<path d="M0 1416.34C237.446 1411.57 486.601 1379.46 685.093 1290.31C983.231 1156.42 1035.79 895.618 1095.81 680.905C1127.44 567.754 1174.94 448.201 1250.14 343.714C1319.66 247.143 1435.37 139.545 1616.27 137.03C1801.05 134.462 1970.78 295.452 2032.13 391.884C2106.29 508.461 2129.88 637.577 2129.88 762.683C2129.88 879.577 2129.11 996.018 2117.44 1112.76C2109.72 1190.06 2099.91 1267.24 2094.72 1344.65C2092.16 1382.89 2074.61 1447.11 2099.87 1484.68C2121.63 1517.04 2188.26 1526.45 2234.05 1532.57C2382.37 1552.37 2528.39 1534.26 2672.63 1509.6C3046.17 1445.74 3394.87 1342.22 3735 1224.78" stroke="#FCA311" stroke-width="272.186" stroke-linecap="round"/>
</svg>
